<svg width="24" height="25" viewBox="0 0 24 25" fill="none" xmlns="http://www.w3.org/2000/svg">
<g clip-path="url(#clip0_3_2373)">
<path d="M0.274969 11.8364C0.275249 11.8361 0.275484 11.8358 0.275812 11.8355L5.17444 6.9605C5.54142 6.59529 6.135 6.59665 6.5003 6.96368C6.86555 7.33067 6.86414 7.92425 6.49716 8.2895L3.20822 11.5625H23.0625C23.5803 11.5625 24 11.9822 24 12.5C24 13.0178 23.5803 13.4375 23.0625 13.4375H3.20827L6.49711 16.7105C6.86409 17.0757 6.8655 17.6693 6.50025 18.0363C6.13495 18.4034 5.54133 18.4047 5.17439 18.0395L0.275764 13.1645C0.275484 13.1642 0.275249 13.1639 0.274921 13.1636C-0.0922508 12.7971 -0.0910778 12.2016 0.274969 11.8364Z" fill="white"/>
</g>
<defs>
<clipPath id="clip0_3_2373">
<rect width="24" height="24" fill="white" transform="matrix(-1 0 0 1 24 0.5)"/>
</clipPath>
</defs>
</svg>
