<svg width="19" height="18" viewBox="0 0 19 18" fill="none" xmlns="http://www.w3.org/2000/svg">
<path d="M13.2506 3.75C13.2506 3.30499 13.3825 2.86998 13.6298 2.49997C13.877 2.12996 14.2284 1.84157 14.6395 1.67127C15.0507 1.50097 15.5031 1.45642 15.9395 1.54323C16.376 1.63005 16.7769 1.84434 17.0916 2.15901C17.4062 2.47368 17.6205 2.87459 17.7073 3.31105C17.7942 3.74751 17.7496 4.19991 17.5793 4.61104C17.409 5.02217 17.1206 5.37357 16.7506 5.62081C16.3806 5.86804 15.9456 6 15.5006 6C14.9038 6 14.3315 5.76295 13.9096 5.34099C13.4876 4.91903 13.2506 4.34674 13.2506 3.75ZM2.00058 4.5H11.0006C11.1995 4.5 11.3903 4.42098 11.5309 4.28033C11.6716 4.13968 11.7506 3.94891 11.7506 3.75C11.7506 3.55109 11.6716 3.36032 11.5309 3.21967C11.3903 3.07902 11.1995 3 11.0006 3H2.00058C1.80167 3 1.6109 3.07902 1.47025 3.21967C1.3296 3.36032 1.25058 3.55109 1.25058 3.75C1.25058 3.94891 1.3296 4.13968 1.47025 4.28033C1.6109 4.42098 1.80167 4.5 2.00058 4.5ZM6.50058 6.75C6.03637 6.75131 5.58393 6.89616 5.20528 7.16471C4.82663 7.43325 4.54031 7.81234 4.38558 8.25H2.00058C1.80167 8.25 1.6109 8.32902 1.47025 8.46967C1.3296 8.61032 1.25058 8.80109 1.25058 9C1.25058 9.19891 1.3296 9.38968 1.47025 9.53033C1.6109 9.67098 1.80167 9.75 2.00058 9.75H4.38558C4.52317 10.1392 4.76516 10.483 5.08506 10.7438C5.40497 11.0046 5.79046 11.1725 6.19935 11.2289C6.60824 11.2853 7.02477 11.2281 7.40336 11.0637C7.78195 10.8992 8.108 10.6338 8.34584 10.2964C8.58367 9.95909 8.72413 9.56281 8.75183 9.15098C8.77952 8.73914 8.6934 8.32762 8.50288 7.96146C8.31236 7.59529 8.02478 7.28859 7.67163 7.07492C7.31847 6.86125 6.91334 6.74884 6.50058 6.75ZM17.0006 8.25H11.0006C10.8017 8.25 10.6109 8.32902 10.4703 8.46967C10.3296 8.61032 10.2506 8.80109 10.2506 9C10.2506 9.19891 10.3296 9.38968 10.4703 9.53033C10.6109 9.67098 10.8017 9.75 11.0006 9.75H17.0006C17.1995 9.75 17.3903 9.67098 17.5309 9.53033C17.6716 9.38968 17.7506 9.19891 17.7506 9C17.7506 8.80109 17.6716 8.61032 17.5309 8.46967C17.3903 8.32902 17.1995 8.25 17.0006 8.25ZM8.00058 13.5H2.00058C1.80167 13.5 1.6109 13.579 1.47025 13.7197C1.3296 13.8603 1.25058 14.0511 1.25058 14.25C1.25058 14.4489 1.3296 14.6397 1.47025 14.7803C1.6109 14.921 1.80167 15 2.00058 15H8.00058C8.19949 15 8.39026 14.921 8.53091 14.7803C8.67156 14.6397 8.75058 14.4489 8.75058 14.25C8.75058 14.0511 8.67156 13.8603 8.53091 13.7197C8.39026 13.579 8.19949 13.5 8.00058 13.5ZM17.0006 13.5H14.6156C14.4387 12.9996 14.0905 12.5778 13.6327 12.3093C13.1749 12.0407 12.6369 11.9427 12.1138 12.0324C11.5907 12.1222 11.1161 12.394 10.774 12.7998C10.4319 13.2056 10.2443 13.7192 10.2443 14.25C10.2443 14.7808 10.4319 15.2944 10.774 15.7002C11.1161 16.106 11.5907 16.3778 12.1138 16.4676C12.6369 16.5574 13.1749 16.4593 13.6327 16.1907C14.0905 15.9222 14.4387 15.5004 14.6156 15H17.0006C17.1995 15 17.3903 14.921 17.5309 14.7803C17.6716 14.6397 17.7506 14.4489 17.7506 14.25C17.7506 14.0511 17.6716 13.8603 17.5309 13.7197C17.3903 13.579 17.1995 13.5 17.0006 13.5Z" fill="white"/>
</svg>
