<svg width="64" height="64" viewBox="0 0 64 64" fill="none" xmlns="http://www.w3.org/2000/svg">
<g clip-path="url(#clip0_4_11635)">
<path d="M32 0C14.3271 0 0 14.3271 0 32C0 49.6729 14.3271 64 32 64C49.6729 64 64 49.6729 64 32C64 14.3271 49.6734 0 32 0ZM25.5374 49.2661C23.4154 47.2809 12.5769 37.1584 10.2265 34.9607L16.7598 28.4274L25.5374 37.8215C30.7711 33.5421 53.773 14.7339 53.773 14.7339C52.6386 16.1213 25.8207 48.9192 25.537 49.2661H25.5374Z" fill="#39B54A"/>
<path opacity="0.1" d="M51.4872 6.61853C55.5365 11.9787 57.9389 18.6522 57.9389 25.8877C57.9389 43.5606 43.6119 57.8877 25.9389 57.8877C18.6048 57.8877 11.8486 55.4187 6.45178 51.2691C12.2933 59.0017 21.5626 64 32 64C49.673 64 64 49.6729 64 32C64 21.6607 59.0954 12.4687 51.4872 6.61853Z" fill="black"/>
</g>
<defs>
<clipPath id="clip0_4_11635">
<rect width="64" height="64" fill="white"/>
</clipPath>
</defs>
</svg>
